<mxfile host="app.diagrams.net" modified="2020-10-30T10:27:19.461Z" agent="5.0 (Windows)" etag="P8HVZNPdvipI4gFItGgR" version="13.8.6" type="github">
  <diagram id="hc9EMMiAokFVV4D4Sd0b" name="Page-1">
    <mxGraphModel dx="868" dy="479" grid="1" gridSize="10" guides="1" tooltips="1" connect="1" arrows="1" fold="1" page="1" pageScale="1" pageWidth="827" pageHeight="1169" math="0" shadow="0">
      <root>
        <mxCell id="0" />
        <mxCell id="1" parent="0" />
        <mxCell id="r6h-WWT1z0xAQhpsZW0J-263" style="edgeStyle=elbowEdgeStyle;rounded=0;orthogonalLoop=1;jettySize=auto;html=1;startSize=20;endSize=20;elbow=vertical;endArrow=none;endFill=0;startArrow=diamondThin;startFill=1;fontSize=20;spacing=0;spacingBottom=0;spacingTop=-3;verticalAlign=middle;" parent="1" source="r6h-WWT1z0xAQhpsZW0J-2" target="r6h-WWT1z0xAQhpsZW0J-160" edge="1">
          <mxGeometry relative="1" as="geometry">
            <Array as="points">
              <mxPoint x="1410" y="90" />
            </Array>
          </mxGeometry>
        </mxCell>
        <mxCell id="r6h-WWT1z0xAQhpsZW0J-264" value="1" style="edgeLabel;html=1;align=center;verticalAlign=middle;resizable=0;points=[];fontSize=20;spacing=0;spacingBottom=0;spacingTop=-3;" parent="r6h-WWT1z0xAQhpsZW0J-263" vertex="1" connectable="0">
          <mxGeometry x="-0.6374" y="-1" relative="1" as="geometry">
            <mxPoint x="120" y="17.67" as="offset" />
          </mxGeometry>
        </mxCell>
        <mxCell id="r6h-WWT1z0xAQhpsZW0J-265" value="1" style="edgeLabel;html=1;align=center;verticalAlign=middle;resizable=0;points=[];fontSize=20;spacing=0;spacingBottom=0;spacingTop=-3;" parent="r6h-WWT1z0xAQhpsZW0J-263" vertex="1" connectable="0">
          <mxGeometry x="0.6893" y="2" relative="1" as="geometry">
            <mxPoint x="-90" y="15.5" as="offset" />
          </mxGeometry>
        </mxCell>
        <mxCell id="r6h-WWT1z0xAQhpsZW0J-374" style="edgeStyle=elbowEdgeStyle;rounded=0;orthogonalLoop=1;jettySize=auto;html=1;startArrow=diamondThin;startFill=1;startSize=20;endArrow=none;endFill=0;endSize=20;strokeWidth=1;fontSize=20;spacing=0;spacingBottom=0;spacingTop=-3;verticalAlign=middle;" parent="1" source="r6h-WWT1z0xAQhpsZW0J-2" target="r6h-WWT1z0xAQhpsZW0J-246" edge="1">
          <mxGeometry relative="1" as="geometry">
            <Array as="points">
              <mxPoint x="2040" y="580" />
            </Array>
          </mxGeometry>
        </mxCell>
        <mxCell id="r6h-WWT1z0xAQhpsZW0J-375" value="2..4" style="edgeLabel;html=1;align=center;verticalAlign=middle;resizable=0;points=[];fontSize=20;spacing=0;spacingBottom=0;spacingTop=-3;" parent="r6h-WWT1z0xAQhpsZW0J-374" vertex="1" connectable="0">
          <mxGeometry x="0.7792" y="1" relative="1" as="geometry">
            <mxPoint x="29" y="41.33" as="offset" />
          </mxGeometry>
        </mxCell>
        <mxCell id="r6h-WWT1z0xAQhpsZW0J-376" value="1" style="edgeLabel;html=1;align=center;verticalAlign=middle;resizable=0;points=[];fontSize=20;spacing=0;spacingBottom=0;spacingTop=-3;" parent="r6h-WWT1z0xAQhpsZW0J-374" vertex="1" connectable="0">
          <mxGeometry x="-0.9117" y="3" relative="1" as="geometry">
            <mxPoint x="17" y="9.43" as="offset" />
          </mxGeometry>
        </mxCell>
        <mxCell id="r6h-WWT1z0xAQhpsZW0J-383" value="2..4" style="edgeLabel;html=1;align=center;verticalAlign=middle;resizable=0;points=[];fontSize=20;" parent="r6h-WWT1z0xAQhpsZW0J-374" vertex="1" connectable="0">
          <mxGeometry x="0.7418" y="3" relative="1" as="geometry">
            <mxPoint x="25" as="offset" />
          </mxGeometry>
        </mxCell>
        <mxCell id="r6h-WWT1z0xAQhpsZW0J-2" value="GameLogic" style="swimlane;fontStyle=1;align=center;verticalAlign=middle;childLayout=stackLayout;horizontal=1;startSize=26;horizontalStack=0;resizeParent=1;resizeParentMax=0;resizeLast=0;collapsible=1;marginBottom=0;fontSize=20;spacing=0;spacingBottom=0;spacingTop=-3;" parent="1" vertex="1">
          <mxGeometry x="1830" y="60" width="580" height="372" as="geometry" />
        </mxCell>
        <mxCell id="r6h-WWT1z0xAQhpsZW0J-8" value="- playerTurn: int" style="text;strokeColor=none;fillColor=none;align=left;verticalAlign=middle;spacingLeft=4;spacingRight=4;overflow=hidden;rotatable=0;points=[[0,0.5],[1,0.5]];portConstraint=eastwest;fontSize=20;spacing=0;spacingBottom=0;spacingTop=-3;" parent="r6h-WWT1z0xAQhpsZW0J-2" vertex="1">
          <mxGeometry y="26" width="580" height="26" as="geometry" />
        </mxCell>
        <mxCell id="r6h-WWT1z0xAQhpsZW0J-304" value="- gamePhase: Phase " style="text;strokeColor=none;fillColor=none;align=left;verticalAlign=middle;spacingLeft=4;spacingRight=4;overflow=hidden;rotatable=0;points=[[0,0.5],[1,0.5]];portConstraint=eastwest;fontSize=20;spacing=0;spacingBottom=0;spacingTop=-3;" parent="r6h-WWT1z0xAQhpsZW0J-2" vertex="1">
          <mxGeometry y="52" width="580" height="26" as="geometry" />
        </mxCell>
        <mxCell id="r6h-WWT1z0xAQhpsZW0J-3" value="" style="line;strokeWidth=1;fillColor=none;align=left;verticalAlign=middle;spacingTop=-3;spacingLeft=3;spacingRight=3;rotatable=0;labelPosition=right;points=[];portConstraint=eastwest;fontSize=20;spacing=0;spacingBottom=0;" parent="r6h-WWT1z0xAQhpsZW0J-2" vertex="1">
          <mxGeometry y="78" width="580" height="8" as="geometry" />
        </mxCell>
        <mxCell id="r6h-WWT1z0xAQhpsZW0J-4" value="+ GameLogic(gameFile:String)" style="text;strokeColor=none;fillColor=none;align=left;verticalAlign=middle;spacingLeft=4;spacingRight=4;overflow=hidden;rotatable=0;points=[[0,0.5],[1,0.5]];portConstraint=eastwest;fontSize=20;spacing=0;spacingBottom=0;spacingTop=-3;" parent="r6h-WWT1z0xAQhpsZW0J-2" vertex="1">
          <mxGeometry y="86" width="580" height="26" as="geometry" />
        </mxCell>
        <mxCell id="r6h-WWT1z0xAQhpsZW0J-12" value="+ getGamePhase(): Phase" style="text;strokeColor=none;fillColor=none;align=left;verticalAlign=middle;spacingLeft=4;spacingRight=4;overflow=hidden;rotatable=0;points=[[0,0.5],[1,0.5]];portConstraint=eastwest;fontSize=20;spacing=0;spacingBottom=0;spacingTop=-3;" parent="r6h-WWT1z0xAQhpsZW0J-2" vertex="1">
          <mxGeometry y="112" width="580" height="26" as="geometry" />
        </mxCell>
        <mxCell id="r6h-WWT1z0xAQhpsZW0J-313" value="+ getSlideLocations(): Coor[]" style="text;strokeColor=none;fillColor=none;align=left;verticalAlign=middle;spacingLeft=4;spacingRight=4;overflow=hidden;rotatable=0;points=[[0,0.5],[1,0.5]];portConstraint=eastwest;fontSize=20;spacing=0;spacingBottom=0;spacingTop=-3;" parent="r6h-WWT1z0xAQhpsZW0J-2" vertex="1">
          <mxGeometry y="138" width="580" height="26" as="geometry" />
        </mxCell>
        <mxCell id="r6h-WWT1z0xAQhpsZW0J-312" value="+ getMoveLocations(): Coor[]" style="text;strokeColor=none;fillColor=none;align=left;verticalAlign=middle;spacingLeft=4;spacingRight=4;overflow=hidden;rotatable=0;points=[[0,0.5],[1,0.5]];portConstraint=eastwest;fontSize=20;spacing=0;spacingBottom=0;spacingTop=-3;" parent="r6h-WWT1z0xAQhpsZW0J-2" vertex="1">
          <mxGeometry y="164" width="580" height="26" as="geometry" />
        </mxCell>
        <mxCell id="r6h-WWT1z0xAQhpsZW0J-315" value="+ userMoveLocation(Coor): void" style="text;strokeColor=none;fillColor=none;align=left;verticalAlign=middle;spacingLeft=4;spacingRight=4;overflow=hidden;rotatable=0;points=[[0,0.5],[1,0.5]];portConstraint=eastwest;fontSize=20;spacing=0;spacingBottom=0;spacingTop=-3;" parent="r6h-WWT1z0xAQhpsZW0J-2" vertex="1">
          <mxGeometry y="190" width="580" height="26" as="geometry" />
        </mxCell>
        <mxCell id="uKZlA5nsA1Sk63bsIkFM-3" value="+ userSlideLocation(location:Coor):void" style="text;strokeColor=none;fillColor=none;align=left;verticalAlign=middle;spacingLeft=4;spacingRight=4;overflow=hidden;rotatable=0;points=[[0,0.5],[1,0.5]];portConstraint=eastwest;fontSize=20;spacing=0;spacingBottom=0;spacingTop=-3;" vertex="1" parent="r6h-WWT1z0xAQhpsZW0J-2">
          <mxGeometry y="216" width="580" height="26" as="geometry" />
        </mxCell>
        <mxCell id="uKZlA5nsA1Sk63bsIkFM-4" value="+ userActionCardChoice(location:Coor, card:ActionCard):void" style="text;strokeColor=none;fillColor=none;align=left;verticalAlign=middle;spacingLeft=4;spacingRight=4;overflow=hidden;rotatable=0;points=[[0,0.5],[1,0.5]];portConstraint=eastwest;fontSize=20;spacing=0;spacingBottom=0;spacingTop=-3;" vertex="1" parent="r6h-WWT1z0xAQhpsZW0J-2">
          <mxGeometry y="242" width="580" height="26" as="geometry" />
        </mxCell>
        <mxCell id="r6h-WWT1z0xAQhpsZW0J-314" value="+ getActionCardLocation(): Coor[]" style="text;strokeColor=none;fillColor=none;align=left;verticalAlign=middle;spacingLeft=4;spacingRight=4;overflow=hidden;rotatable=0;points=[[0,0.5],[1,0.5]];portConstraint=eastwest;fontSize=20;spacing=0;spacingBottom=0;spacingTop=-3;" parent="r6h-WWT1z0xAQhpsZW0J-2" vertex="1">
          <mxGeometry y="268" width="580" height="26" as="geometry" />
        </mxCell>
        <mxCell id="r6h-WWT1z0xAQhpsZW0J-10" value="+ getPlayableActionTiles(): ActionTile[]" style="text;strokeColor=none;fillColor=none;align=left;verticalAlign=middle;spacingLeft=4;spacingRight=4;overflow=hidden;rotatable=0;points=[[0,0.5],[1,0.5]];portConstraint=eastwest;fontSize=20;spacing=0;spacingBottom=0;spacingTop=-3;" parent="r6h-WWT1z0xAQhpsZW0J-2" vertex="1">
          <mxGeometry y="294" width="580" height="26" as="geometry" />
        </mxCell>
        <mxCell id="r6h-WWT1z0xAQhpsZW0J-5" value="- incrementTurns(): void" style="text;strokeColor=none;fillColor=none;align=left;verticalAlign=middle;spacingLeft=4;spacingRight=4;overflow=hidden;rotatable=0;points=[[0,0.5],[1,0.5]];portConstraint=eastwest;fontSize=20;spacing=0;spacingBottom=0;spacingTop=-3;" parent="r6h-WWT1z0xAQhpsZW0J-2" vertex="1">
          <mxGeometry y="320" width="580" height="26" as="geometry" />
        </mxCell>
        <mxCell id="r6h-WWT1z0xAQhpsZW0J-13" value="- endGame(): void" style="text;strokeColor=none;fillColor=none;align=left;verticalAlign=middle;spacingLeft=4;spacingRight=4;overflow=hidden;rotatable=0;points=[[0,0.5],[1,0.5]];portConstraint=eastwest;fontSize=20;spacing=0;spacingBottom=0;spacingTop=-3;" parent="r6h-WWT1z0xAQhpsZW0J-2" vertex="1">
          <mxGeometry y="346" width="580" height="26" as="geometry" />
        </mxCell>
        <mxCell id="r6h-WWT1z0xAQhpsZW0J-320" style="edgeStyle=elbowEdgeStyle;rounded=0;orthogonalLoop=1;jettySize=auto;html=1;startArrow=diamondThin;startFill=0;startSize=20;endArrow=none;endFill=0;endSize=20;fontSize=20;spacing=0;spacingBottom=0;spacingTop=-3;verticalAlign=middle;" parent="1" source="r6h-WWT1z0xAQhpsZW0J-14" target="r6h-WWT1z0xAQhpsZW0J-26" edge="1">
          <mxGeometry relative="1" as="geometry">
            <Array as="points">
              <mxPoint x="1580" y="400" />
            </Array>
          </mxGeometry>
        </mxCell>
        <mxCell id="r6h-WWT1z0xAQhpsZW0J-362" value="0..*" style="edgeLabel;html=1;align=center;verticalAlign=middle;resizable=0;points=[];fontSize=20;spacing=0;spacingBottom=0;spacingTop=-3;" parent="r6h-WWT1z0xAQhpsZW0J-320" vertex="1" connectable="0">
          <mxGeometry x="0.7525" y="-3" relative="1" as="geometry">
            <mxPoint x="-33" y="-16.14" as="offset" />
          </mxGeometry>
        </mxCell>
        <mxCell id="r6h-WWT1z0xAQhpsZW0J-363" value="0..1" style="edgeLabel;html=1;align=center;verticalAlign=middle;resizable=0;points=[];fontSize=20;spacing=0;spacingBottom=0;spacingTop=-3;" parent="r6h-WWT1z0xAQhpsZW0J-320" vertex="1" connectable="0">
          <mxGeometry x="-0.7708" y="3" relative="1" as="geometry">
            <mxPoint x="11.430000000000003" y="-16.000000000000007" as="offset" />
          </mxGeometry>
        </mxCell>
        <mxCell id="r6h-WWT1z0xAQhpsZW0J-14" value="SilkBag" style="swimlane;fontStyle=1;align=center;verticalAlign=middle;childLayout=stackLayout;horizontal=1;startSize=26;horizontalStack=0;resizeParent=1;resizeParentMax=0;resizeLast=0;collapsible=1;marginBottom=0;fontSize=20;spacing=0;spacingBottom=0;spacingTop=-3;" parent="1" vertex="1">
          <mxGeometry x="1260" y="560" width="240" height="138" as="geometry" />
        </mxCell>
        <mxCell id="r6h-WWT1z0xAQhpsZW0J-18" value="" style="line;strokeWidth=1;fillColor=none;align=left;verticalAlign=middle;spacingTop=-3;spacingLeft=3;spacingRight=3;rotatable=0;labelPosition=right;points=[];portConstraint=eastwest;fontSize=20;spacing=0;spacingBottom=0;" parent="r6h-WWT1z0xAQhpsZW0J-14" vertex="1">
          <mxGeometry y="26" width="240" height="8" as="geometry" />
        </mxCell>
        <mxCell id="r6h-WWT1z0xAQhpsZW0J-19" value="+ SilkBag()" style="text;strokeColor=none;fillColor=none;align=left;verticalAlign=middle;spacingLeft=4;spacingRight=4;overflow=hidden;rotatable=0;points=[[0,0.5],[1,0.5]];portConstraint=eastwest;fontSize=20;spacing=0;spacingBottom=0;spacingTop=-3;" parent="r6h-WWT1z0xAQhpsZW0J-14" vertex="1">
          <mxGeometry y="34" width="240" height="26" as="geometry" />
        </mxCell>
        <mxCell id="r6h-WWT1z0xAQhpsZW0J-21" value="+ getTile(): Tile" style="text;strokeColor=none;fillColor=none;align=left;verticalAlign=middle;spacingLeft=4;spacingRight=4;overflow=hidden;rotatable=0;points=[[0,0.5],[1,0.5]];portConstraint=eastwest;fontSize=20;spacing=0;spacingBottom=0;spacingTop=-3;" parent="r6h-WWT1z0xAQhpsZW0J-14" vertex="1">
          <mxGeometry y="60" width="240" height="26" as="geometry" />
        </mxCell>
        <mxCell id="r6h-WWT1z0xAQhpsZW0J-317" value="+ getFloorTile(): Tile" style="text;strokeColor=none;fillColor=none;align=left;verticalAlign=middle;spacingLeft=4;spacingRight=4;overflow=hidden;rotatable=0;points=[[0,0.5],[1,0.5]];portConstraint=eastwest;fontSize=20;spacing=0;spacingBottom=0;spacingTop=-3;" parent="r6h-WWT1z0xAQhpsZW0J-14" vertex="1">
          <mxGeometry y="86" width="240" height="26" as="geometry" />
        </mxCell>
        <mxCell id="r6h-WWT1z0xAQhpsZW0J-319" value="+ insertTile(tile:Tile): void" style="text;strokeColor=none;fillColor=none;align=left;verticalAlign=middle;spacingLeft=4;spacingRight=4;overflow=hidden;rotatable=0;points=[[0,0.5],[1,0.5]];portConstraint=eastwest;fontSize=20;spacing=0;spacingBottom=0;spacingTop=-3;" parent="r6h-WWT1z0xAQhpsZW0J-14" vertex="1">
          <mxGeometry y="112" width="240" height="26" as="geometry" />
        </mxCell>
        <mxCell id="r6h-WWT1z0xAQhpsZW0J-283" style="edgeStyle=elbowEdgeStyle;rounded=0;orthogonalLoop=1;jettySize=auto;html=1;startArrow=cross;startFill=0;startSize=20;endArrow=open;endFill=0;endSize=20;elbow=vertical;fontSize=20;spacing=0;spacingBottom=0;spacingTop=-3;verticalAlign=middle;" parent="1" source="r6h-WWT1z0xAQhpsZW0J-160" target="r6h-WWT1z0xAQhpsZW0J-14" edge="1">
          <mxGeometry relative="1" as="geometry" />
        </mxCell>
        <mxCell id="r6h-WWT1z0xAQhpsZW0J-285" value="1" style="edgeLabel;html=1;align=center;verticalAlign=middle;resizable=0;points=[];fontSize=20;spacing=0;spacingBottom=0;spacingTop=-3;" parent="r6h-WWT1z0xAQhpsZW0J-283" vertex="1" connectable="0">
          <mxGeometry x="0.8942" relative="1" as="geometry">
            <mxPoint x="-24.709999999999997" y="-22.65" as="offset" />
          </mxGeometry>
        </mxCell>
        <mxCell id="r6h-WWT1z0xAQhpsZW0J-286" value="Returns Tile ►" style="edgeLabel;html=1;align=center;verticalAlign=middle;resizable=0;points=[];fontSize=20;spacing=0;spacingBottom=0;spacingTop=-3;" parent="r6h-WWT1z0xAQhpsZW0J-283" vertex="1" connectable="0">
          <mxGeometry x="-0.2694" y="3" relative="1" as="geometry">
            <mxPoint x="27.139999999999997" y="28.43" as="offset" />
          </mxGeometry>
        </mxCell>
        <mxCell id="r6h-WWT1z0xAQhpsZW0J-368" value="1" style="edgeLabel;html=1;align=center;verticalAlign=middle;resizable=0;points=[];fontSize=20;spacing=0;spacingBottom=0;spacingTop=-3;" parent="r6h-WWT1z0xAQhpsZW0J-283" vertex="1" connectable="0">
          <mxGeometry x="-0.7308" y="7" relative="1" as="geometry">
            <mxPoint x="13.33" y="-10.67" as="offset" />
          </mxGeometry>
        </mxCell>
        <mxCell id="r6h-WWT1z0xAQhpsZW0J-160" value="GameBoard" style="swimlane;fontStyle=1;align=center;verticalAlign=middle;childLayout=stackLayout;horizontal=1;startSize=26;horizontalStack=0;resizeParent=1;resizeParentMax=0;resizeLast=0;collapsible=1;marginBottom=0;fontSize=20;spacing=0;spacingBottom=0;spacingTop=-3;" parent="1" vertex="1">
          <mxGeometry x="580" y="30" width="480" height="632" as="geometry" />
        </mxCell>
        <mxCell id="r6h-WWT1z0xAQhpsZW0J-161" value="- width: int" style="text;strokeColor=none;fillColor=none;align=left;verticalAlign=middle;spacingLeft=4;spacingRight=4;overflow=hidden;rotatable=0;points=[[0,0.5],[1,0.5]];portConstraint=eastwest;fontSize=20;spacing=0;spacingBottom=0;spacingTop=-3;" parent="r6h-WWT1z0xAQhpsZW0J-160" vertex="1">
          <mxGeometry y="26" width="480" height="26" as="geometry" />
        </mxCell>
        <mxCell id="r6h-WWT1z0xAQhpsZW0J-287" value="- height: int" style="text;strokeColor=none;fillColor=none;align=left;verticalAlign=middle;spacingLeft=4;spacingRight=4;overflow=hidden;rotatable=0;points=[[0,0.5],[1,0.5]];portConstraint=eastwest;fontSize=20;spacing=0;spacingBottom=0;spacingTop=-3;" parent="r6h-WWT1z0xAQhpsZW0J-160" vertex="1">
          <mxGeometry y="52" width="480" height="26" as="geometry" />
        </mxCell>
        <mxCell id="r6h-WWT1z0xAQhpsZW0J-163" value="- goalCoord: Coor" style="text;strokeColor=none;fillColor=none;align=left;verticalAlign=middle;spacingLeft=4;spacingRight=4;overflow=hidden;rotatable=0;points=[[0,0.5],[1,0.5]];portConstraint=eastwest;fontSize=20;spacing=0;spacingBottom=0;spacingTop=-3;" parent="r6h-WWT1z0xAQhpsZW0J-160" vertex="1">
          <mxGeometry y="78" width="480" height="26" as="geometry" />
        </mxCell>
        <mxCell id="r6h-WWT1z0xAQhpsZW0J-173" value="- actionTiles: (ActionTile, Coor)[]" style="text;strokeColor=none;fillColor=none;align=left;verticalAlign=middle;spacingLeft=4;spacingRight=4;overflow=hidden;rotatable=0;points=[[0,0.5],[1,0.5]];portConstraint=eastwest;fontSize=20;spacing=0;spacingBottom=0;spacingTop=-3;" parent="r6h-WWT1z0xAQhpsZW0J-160" vertex="1">
          <mxGeometry y="104" width="480" height="26" as="geometry" />
        </mxCell>
        <mxCell id="r6h-WWT1z0xAQhpsZW0J-299" value="- playerLocations: Coor[][]" style="text;strokeColor=none;fillColor=none;align=left;verticalAlign=middle;spacingLeft=4;spacingRight=4;overflow=hidden;rotatable=0;points=[[0,0.5],[1,0.5]];portConstraint=eastwest;fontSize=20;spacing=0;spacingBottom=0;spacingTop=-3;" parent="r6h-WWT1z0xAQhpsZW0J-160" vertex="1">
          <mxGeometry y="130" width="480" height="26" as="geometry" />
        </mxCell>
        <mxCell id="r6h-WWT1z0xAQhpsZW0J-164" value="" style="line;strokeWidth=1;fillColor=none;align=left;verticalAlign=middle;spacingTop=-3;spacingLeft=3;spacingRight=3;rotatable=0;labelPosition=right;points=[];portConstraint=eastwest;fontSize=20;spacing=0;spacingBottom=0;" parent="r6h-WWT1z0xAQhpsZW0J-160" vertex="1">
          <mxGeometry y="156" width="480" height="8" as="geometry" />
        </mxCell>
        <mxCell id="r6h-WWT1z0xAQhpsZW0J-165" value="+ Gameboard(width:int, height:int)" style="text;strokeColor=none;fillColor=none;align=left;verticalAlign=middle;spacingLeft=4;spacingRight=4;overflow=hidden;rotatable=0;points=[[0,0.5],[1,0.5]];portConstraint=eastwest;fontSize=20;spacing=0;spacingBottom=0;spacingTop=-3;" parent="r6h-WWT1z0xAQhpsZW0J-160" vertex="1">
          <mxGeometry y="164" width="480" height="26" as="geometry" />
        </mxCell>
        <mxCell id="r6h-WWT1z0xAQhpsZW0J-166" value="+ getPlayerPos(player:int): Coor " style="text;strokeColor=none;fillColor=none;align=left;verticalAlign=middle;spacingLeft=4;spacingRight=4;overflow=hidden;rotatable=0;points=[[0,0.5],[1,0.5]];portConstraint=eastwest;fontSize=20;spacing=0;spacingBottom=0;spacingTop=-3;" parent="r6h-WWT1z0xAQhpsZW0J-160" vertex="1">
          <mxGeometry y="190" width="480" height="26" as="geometry" />
        </mxCell>
        <mxCell id="r6h-WWT1z0xAQhpsZW0J-168" value="+ setPlayerPos(player:int, position: Coor): void" style="text;strokeColor=none;fillColor=none;align=left;verticalAlign=middle;spacingLeft=4;spacingRight=4;overflow=hidden;rotatable=0;points=[[0,0.5],[1,0.5]];portConstraint=eastwest;fontSize=20;spacing=0;spacingBottom=0;spacingTop=-3;" parent="r6h-WWT1z0xAQhpsZW0J-160" vertex="1">
          <mxGeometry y="216" width="480" height="26" as="geometry" />
        </mxCell>
        <mxCell id="r6h-WWT1z0xAQhpsZW0J-184" value="+ playFloorTile(slideLocation:Coor, tile:Tile):void" style="text;strokeColor=none;fillColor=none;align=left;verticalAlign=middle;spacingLeft=4;spacingRight=4;overflow=hidden;rotatable=0;points=[[0,0.5],[1,0.5]];portConstraint=eastwest;fontSize=20;spacing=0;spacingBottom=0;spacingTop=-3;" parent="r6h-WWT1z0xAQhpsZW0J-160" vertex="1">
          <mxGeometry y="242" width="480" height="26" as="geometry" />
        </mxCell>
        <mxCell id="r6h-WWT1z0xAQhpsZW0J-298" value="+ placeFixedTile(slideLocation:Coor, tile:Tile): void" style="text;strokeColor=none;fillColor=none;align=left;verticalAlign=middle;spacingLeft=4;spacingRight=4;overflow=hidden;rotatable=0;points=[[0,0.5],[1,0.5]];portConstraint=eastwest;fontSize=20;spacing=0;spacingBottom=0;spacingTop=-3;" parent="r6h-WWT1z0xAQhpsZW0J-160" vertex="1">
          <mxGeometry y="268" width="480" height="26" as="geometry" />
        </mxCell>
        <mxCell id="r6h-WWT1z0xAQhpsZW0J-177" value="+ isPlayerOnGoal():boolean" style="text;strokeColor=none;fillColor=none;align=left;verticalAlign=middle;spacingLeft=4;spacingRight=4;overflow=hidden;rotatable=0;points=[[0,0.5],[1,0.5]];portConstraint=eastwest;fontSize=20;spacing=0;spacingBottom=0;spacingTop=-3;" parent="r6h-WWT1z0xAQhpsZW0J-160" vertex="1">
          <mxGeometry y="294" width="480" height="26" as="geometry" />
        </mxCell>
        <mxCell id="r6h-WWT1z0xAQhpsZW0J-179" value="+ getPlayerTile(player:int): Tile" style="text;strokeColor=none;fillColor=none;align=left;verticalAlign=middle;spacingLeft=4;spacingRight=4;overflow=hidden;rotatable=0;points=[[0,0.5],[1,0.5]];portConstraint=eastwest;fontSize=20;spacing=0;spacingBottom=0;spacingTop=-3;" parent="r6h-WWT1z0xAQhpsZW0J-160" vertex="1">
          <mxGeometry y="320" width="480" height="26" as="geometry" />
        </mxCell>
        <mxCell id="r6h-WWT1z0xAQhpsZW0J-176" value="+ getGoalTile(): Coor" style="text;strokeColor=none;fillColor=none;align=left;verticalAlign=middle;spacingLeft=4;spacingRight=4;overflow=hidden;rotatable=0;points=[[0,0.5],[1,0.5]];portConstraint=eastwest;fontSize=20;spacing=0;spacingBottom=0;spacingTop=-3;" parent="r6h-WWT1z0xAQhpsZW0J-160" vertex="1">
          <mxGeometry y="346" width="480" height="26" as="geometry" />
        </mxCell>
        <mxCell id="uKZlA5nsA1Sk63bsIkFM-2" value="+ getPlayerMoveLocations(player:int): Coor[]" style="text;strokeColor=none;fillColor=none;align=left;verticalAlign=middle;spacingLeft=4;spacingRight=4;overflow=hidden;rotatable=0;points=[[0,0.5],[1,0.5]];portConstraint=eastwest;fontSize=20;spacing=0;spacingBottom=0;spacingTop=-3;" vertex="1" parent="r6h-WWT1z0xAQhpsZW0J-160">
          <mxGeometry y="372" width="480" height="26" as="geometry" />
        </mxCell>
        <mxCell id="r6h-WWT1z0xAQhpsZW0J-167" value="- updatePlayerPos(player:int):void" style="text;strokeColor=none;fillColor=none;align=left;verticalAlign=middle;spacingLeft=4;spacingRight=4;overflow=hidden;rotatable=0;points=[[0,0.5],[1,0.5]];portConstraint=eastwest;fontSize=20;spacing=0;spacingBottom=0;spacingTop=-3;" parent="r6h-WWT1z0xAQhpsZW0J-160" vertex="1">
          <mxGeometry y="398" width="480" height="26" as="geometry" />
        </mxCell>
        <mxCell id="r6h-WWT1z0xAQhpsZW0J-169" value="- setFireCoords(location:Coor): void" style="text;strokeColor=none;fillColor=none;align=left;verticalAlign=middle;spacingLeft=4;spacingRight=4;overflow=hidden;rotatable=0;points=[[0,0.5],[1,0.5]];portConstraint=eastwest;fontSize=20;spacing=0;spacingBottom=0;spacingTop=-3;" parent="r6h-WWT1z0xAQhpsZW0J-160" vertex="1">
          <mxGeometry y="424" width="480" height="26" as="geometry" />
        </mxCell>
        <mxCell id="r6h-WWT1z0xAQhpsZW0J-371" value="- setFreezeCoords(location: Coor):void" style="text;strokeColor=none;fillColor=none;align=left;verticalAlign=middle;spacingLeft=4;spacingRight=4;overflow=hidden;rotatable=0;points=[[0,0.5],[1,0.5]];portConstraint=eastwest;fontSize=20;spacing=0;spacingBottom=0;spacingTop=-3;" parent="r6h-WWT1z0xAQhpsZW0J-160" vertex="1">
          <mxGeometry y="450" width="480" height="26" as="geometry" />
        </mxCell>
        <mxCell id="r6h-WWT1z0xAQhpsZW0J-170" value="- setFreezeCoords(location: Coor):void" style="text;strokeColor=none;fillColor=none;align=left;verticalAlign=middle;spacingLeft=4;spacingRight=4;overflow=hidden;rotatable=0;points=[[0,0.5],[1,0.5]];portConstraint=eastwest;fontSize=20;spacing=0;spacingBottom=0;spacingTop=-3;" parent="r6h-WWT1z0xAQhpsZW0J-160" vertex="1">
          <mxGeometry y="476" width="480" height="26" as="geometry" />
        </mxCell>
        <mxCell id="r6h-WWT1z0xAQhpsZW0J-182" value="- slideTile(slideLocation: Coor):void" style="text;strokeColor=none;fillColor=none;align=left;verticalAlign=middle;spacingLeft=4;spacingRight=4;overflow=hidden;rotatable=0;points=[[0,0.5],[1,0.5]];portConstraint=eastwest;fontSize=20;spacing=0;spacingBottom=0;spacingTop=-3;" parent="r6h-WWT1z0xAQhpsZW0J-160" vertex="1">
          <mxGeometry y="502" width="480" height="26" as="geometry" />
        </mxCell>
        <mxCell id="r6h-WWT1z0xAQhpsZW0J-171" value="- getFireEffectedArea(): Coor[]" style="text;strokeColor=none;fillColor=none;align=left;verticalAlign=middle;spacingLeft=4;spacingRight=4;overflow=hidden;rotatable=0;points=[[0,0.5],[1,0.5]];portConstraint=eastwest;fontSize=20;spacing=0;spacingBottom=0;spacingTop=-3;" parent="r6h-WWT1z0xAQhpsZW0J-160" vertex="1">
          <mxGeometry y="528" width="480" height="26" as="geometry" />
        </mxCell>
        <mxCell id="r6h-WWT1z0xAQhpsZW0J-288" value="- getFrozenEffectedArea(): Coor[]" style="text;strokeColor=none;fillColor=none;align=left;verticalAlign=middle;spacingLeft=4;spacingRight=4;overflow=hidden;rotatable=0;points=[[0,0.5],[1,0.5]];portConstraint=eastwest;fontSize=20;spacing=0;spacingBottom=0;spacingTop=-3;" parent="r6h-WWT1z0xAQhpsZW0J-160" vertex="1">
          <mxGeometry y="554" width="480" height="26" as="geometry" />
        </mxCell>
        <mxCell id="r6h-WWT1z0xAQhpsZW0J-185" value="- movePlayer(player:int, location:Coor): void" style="text;strokeColor=none;fillColor=none;align=left;verticalAlign=middle;spacingLeft=4;spacingRight=4;overflow=hidden;rotatable=0;points=[[0,0.5],[1,0.5]];portConstraint=eastwest;fontSize=20;spacing=0;spacingBottom=0;spacingTop=-3;" parent="r6h-WWT1z0xAQhpsZW0J-160" vertex="1">
          <mxGeometry y="580" width="480" height="26" as="geometry" />
        </mxCell>
        <mxCell id="uKZlA5nsA1Sk63bsIkFM-1" value="- getMoveDirections(location: Coor): Coor[]" style="text;strokeColor=none;fillColor=none;align=left;verticalAlign=middle;spacingLeft=4;spacingRight=4;overflow=hidden;rotatable=0;points=[[0,0.5],[1,0.5]];portConstraint=eastwest;fontSize=20;spacing=0;spacingBottom=0;spacingTop=-3;" vertex="1" parent="r6h-WWT1z0xAQhpsZW0J-160">
          <mxGeometry y="606" width="480" height="26" as="geometry" />
        </mxCell>
        <mxCell id="r6h-WWT1z0xAQhpsZW0J-321" style="edgeStyle=elbowEdgeStyle;rounded=0;orthogonalLoop=1;jettySize=auto;html=1;startArrow=cross;startFill=0;startSize=20;endArrow=open;endFill=0;endSize=20;elbow=vertical;fontSize=20;spacing=0;spacingBottom=0;spacingTop=-3;verticalAlign=middle;" parent="1" source="r6h-WWT1z0xAQhpsZW0J-246" target="r6h-WWT1z0xAQhpsZW0J-14" edge="1">
          <mxGeometry relative="1" as="geometry">
            <Array as="points">
              <mxPoint x="1600" y="670" />
              <mxPoint x="1580" y="670" />
              <mxPoint x="970" y="870" />
            </Array>
          </mxGeometry>
        </mxCell>
        <mxCell id="r6h-WWT1z0xAQhpsZW0J-322" value="◄ requests from " style="edgeLabel;html=1;align=center;verticalAlign=middle;resizable=0;points=[];fontSize=20;spacing=0;spacingBottom=0;spacingTop=-3;" parent="r6h-WWT1z0xAQhpsZW0J-321" vertex="1" connectable="0">
          <mxGeometry x="0.5138" relative="1" as="geometry">
            <mxPoint x="51.43" y="30" as="offset" />
          </mxGeometry>
        </mxCell>
        <mxCell id="r6h-WWT1z0xAQhpsZW0J-323" value="1" style="edgeLabel;html=1;align=center;verticalAlign=middle;resizable=0;points=[];fontSize=20;spacing=0;spacingBottom=0;spacingTop=-3;" parent="r6h-WWT1z0xAQhpsZW0J-321" vertex="1" connectable="0">
          <mxGeometry x="0.8881" relative="1" as="geometry">
            <mxPoint x="-30" y="-6.67" as="offset" />
          </mxGeometry>
        </mxCell>
        <mxCell id="r6h-WWT1z0xAQhpsZW0J-373" value="2..4" style="edgeLabel;html=1;align=center;verticalAlign=middle;resizable=0;points=[];fontSize=20;spacing=0;spacingBottom=0;spacingTop=-3;" parent="r6h-WWT1z0xAQhpsZW0J-321" vertex="1" connectable="0">
          <mxGeometry x="-0.7318" y="3" relative="1" as="geometry">
            <mxPoint x="-27" as="offset" />
          </mxGeometry>
        </mxCell>
        <mxCell id="r6h-WWT1z0xAQhpsZW0J-384" value="1" style="edgeLabel;html=1;align=center;verticalAlign=middle;resizable=0;points=[];fontSize=20;" parent="r6h-WWT1z0xAQhpsZW0J-321" vertex="1" connectable="0">
          <mxGeometry x="0.6452" y="-1" relative="1" as="geometry">
            <mxPoint as="offset" />
          </mxGeometry>
        </mxCell>
        <mxCell id="r6h-WWT1z0xAQhpsZW0J-324" style="edgeStyle=elbowEdgeStyle;rounded=0;orthogonalLoop=1;jettySize=auto;html=1;startArrow=cross;startFill=0;startSize=20;endArrow=open;endFill=0;endSize=20;elbow=vertical;fontSize=20;spacing=0;spacingBottom=0;spacingTop=-3;verticalAlign=middle;" parent="1" source="r6h-WWT1z0xAQhpsZW0J-246" target="r6h-WWT1z0xAQhpsZW0J-160" edge="1">
          <mxGeometry relative="1" as="geometry">
            <Array as="points">
              <mxPoint x="1380" y="860" />
              <mxPoint x="1440" y="780" />
              <mxPoint x="1220" y="760" />
            </Array>
          </mxGeometry>
        </mxCell>
        <mxCell id="r6h-WWT1z0xAQhpsZW0J-325" value="◄ Plays on" style="edgeLabel;html=1;align=center;verticalAlign=middle;resizable=0;points=[];fontSize=20;spacing=0;spacingBottom=0;spacingTop=-3;" parent="r6h-WWT1z0xAQhpsZW0J-324" vertex="1" connectable="0">
          <mxGeometry x="0.0589" y="1" relative="1" as="geometry">
            <mxPoint x="70" y="-11" as="offset" />
          </mxGeometry>
        </mxCell>
        <mxCell id="r6h-WWT1z0xAQhpsZW0J-357" value="1" style="edgeLabel;html=1;align=center;verticalAlign=middle;resizable=0;points=[];fontSize=20;spacing=0;spacingBottom=0;spacingTop=-3;" parent="r6h-WWT1z0xAQhpsZW0J-324" vertex="1" connectable="0">
          <mxGeometry x="0.8912" y="-2" relative="1" as="geometry">
            <mxPoint x="18" y="-44.29" as="offset" />
          </mxGeometry>
        </mxCell>
        <mxCell id="r6h-WWT1z0xAQhpsZW0J-358" value="2..4" style="edgeLabel;html=1;align=center;verticalAlign=middle;resizable=0;points=[];fontSize=20;spacing=0;spacingBottom=0;spacingTop=-3;" parent="r6h-WWT1z0xAQhpsZW0J-324" vertex="1" connectable="0">
          <mxGeometry x="-0.8791" relative="1" as="geometry">
            <mxPoint x="31.43" y="-30" as="offset" />
          </mxGeometry>
        </mxCell>
        <mxCell id="r6h-WWT1z0xAQhpsZW0J-246" value="Player" style="swimlane;fontStyle=1;align=center;verticalAlign=middle;childLayout=stackLayout;horizontal=1;startSize=26;horizontalStack=0;resizeParent=1;resizeParentMax=0;resizeLast=0;collapsible=1;marginBottom=0;fontSize=20;spacing=0;spacingBottom=0;spacingTop=-3;" parent="1" vertex="1">
          <mxGeometry x="1740" y="640" width="415" height="320" as="geometry" />
        </mxCell>
        <mxCell id="r6h-WWT1z0xAQhpsZW0J-247" value="- playerInventory: Tile[]" style="text;strokeColor=none;fillColor=none;align=left;verticalAlign=middle;spacingLeft=4;spacingRight=4;overflow=hidden;rotatable=0;points=[[0,0.5],[1,0.5]];portConstraint=eastwest;fontSize=20;spacing=0;spacingBottom=0;spacingTop=-3;" parent="r6h-WWT1z0xAQhpsZW0J-246" vertex="1">
          <mxGeometry y="26" width="415" height="26" as="geometry" />
        </mxCell>
        <mxCell id="r6h-WWT1z0xAQhpsZW0J-302" value="- lastDrawnTile: Tile" style="text;strokeColor=none;fillColor=none;align=left;verticalAlign=middle;spacingLeft=4;spacingRight=4;overflow=hidden;rotatable=0;points=[[0,0.5],[1,0.5]];portConstraint=eastwest;fontSize=20;spacing=0;spacingBottom=0;spacingTop=-3;" parent="r6h-WWT1z0xAQhpsZW0J-246" vertex="1">
          <mxGeometry y="52" width="415" height="26" as="geometry" />
        </mxCell>
        <mxCell id="r6h-WWT1z0xAQhpsZW0J-303" value="- playerNumber: int" style="text;strokeColor=none;fillColor=none;align=left;verticalAlign=middle;spacingLeft=4;spacingRight=4;overflow=hidden;rotatable=0;points=[[0,0.5],[1,0.5]];portConstraint=eastwest;fontSize=20;spacing=0;spacingBottom=0;spacingTop=-3;" parent="r6h-WWT1z0xAQhpsZW0J-246" vertex="1">
          <mxGeometry y="78" width="415" height="26" as="geometry" />
        </mxCell>
        <mxCell id="r6h-WWT1z0xAQhpsZW0J-251" value="" style="line;strokeWidth=1;fillColor=none;align=left;verticalAlign=middle;spacingTop=-3;spacingLeft=3;spacingRight=3;rotatable=0;labelPosition=right;points=[];portConstraint=eastwest;fontSize=20;spacing=0;spacingBottom=0;" parent="r6h-WWT1z0xAQhpsZW0J-246" vertex="1">
          <mxGeometry y="104" width="415" height="8" as="geometry" />
        </mxCell>
        <mxCell id="r6h-WWT1z0xAQhpsZW0J-252" value="+ Player(playerNumber:int)" style="text;strokeColor=none;fillColor=none;align=left;verticalAlign=middle;spacingLeft=4;spacingRight=4;overflow=hidden;rotatable=0;points=[[0,0.5],[1,0.5]];portConstraint=eastwest;fontSize=20;spacing=0;spacingBottom=0;spacingTop=-3;" parent="r6h-WWT1z0xAQhpsZW0J-246" vertex="1">
          <mxGeometry y="112" width="415" height="26" as="geometry" />
        </mxCell>
        <mxCell id="r6h-WWT1z0xAQhpsZW0J-255" value="+ getInventory(): Tile[]" style="text;strokeColor=none;fillColor=none;align=left;verticalAlign=middle;spacingLeft=4;spacingRight=4;overflow=hidden;rotatable=0;points=[[0,0.5],[1,0.5]];portConstraint=eastwest;fontSize=20;spacing=0;spacingBottom=0;spacingTop=-3;" parent="r6h-WWT1z0xAQhpsZW0J-246" vertex="1">
          <mxGeometry y="138" width="415" height="26" as="geometry" />
        </mxCell>
        <mxCell id="r6h-WWT1z0xAQhpsZW0J-300" value="+ drawTileFromBag(): void" style="text;strokeColor=none;fillColor=none;align=left;verticalAlign=middle;spacingLeft=4;spacingRight=4;overflow=hidden;rotatable=0;points=[[0,0.5],[1,0.5]];portConstraint=eastwest;fontSize=20;spacing=0;spacingBottom=0;spacingTop=-3;" parent="r6h-WWT1z0xAQhpsZW0J-246" vertex="1">
          <mxGeometry y="164" width="415" height="26" as="geometry" />
        </mxCell>
        <mxCell id="r6h-WWT1z0xAQhpsZW0J-256" value="- addToInventory(tile: Tile): void" style="text;strokeColor=none;fillColor=none;align=left;verticalAlign=middle;spacingLeft=4;spacingRight=4;overflow=hidden;rotatable=0;points=[[0,0.5],[1,0.5]];portConstraint=eastwest;fontSize=20;spacing=0;spacingBottom=0;spacingTop=-3;" parent="r6h-WWT1z0xAQhpsZW0J-246" vertex="1">
          <mxGeometry y="190" width="415" height="26" as="geometry" />
        </mxCell>
        <mxCell id="r6h-WWT1z0xAQhpsZW0J-257" value="- removeFromInventory(tile:Tile): void" style="text;strokeColor=none;fillColor=none;align=left;verticalAlign=middle;spacingLeft=4;spacingRight=4;overflow=hidden;rotatable=0;points=[[0,0.5],[1,0.5]];portConstraint=eastwest;fontSize=20;spacing=0;spacingBottom=0;spacingTop=-3;" parent="r6h-WWT1z0xAQhpsZW0J-246" vertex="1">
          <mxGeometry y="216" width="415" height="26" as="geometry" />
        </mxCell>
        <mxCell id="r6h-WWT1z0xAQhpsZW0J-259" value="+ playFloorTile(slideLocations:Coor): void" style="text;strokeColor=none;fillColor=none;align=left;verticalAlign=middle;spacingLeft=4;spacingRight=4;overflow=hidden;rotatable=0;points=[[0,0.5],[1,0.5]];portConstraint=eastwest;fontSize=20;spacing=0;spacingBottom=0;spacingTop=-3;" parent="r6h-WWT1z0xAQhpsZW0J-246" vertex="1">
          <mxGeometry y="242" width="415" height="26" as="geometry" />
        </mxCell>
        <mxCell id="r6h-WWT1z0xAQhpsZW0J-260" value="+ playActionTile(location:Coor, tile:Tile): void" style="text;strokeColor=none;fillColor=none;align=left;verticalAlign=middle;spacingLeft=4;spacingRight=4;overflow=hidden;rotatable=0;points=[[0,0.5],[1,0.5]];portConstraint=eastwest;fontSize=20;spacing=0;spacingBottom=0;spacingTop=-3;" parent="r6h-WWT1z0xAQhpsZW0J-246" vertex="1">
          <mxGeometry y="268" width="415" height="26" as="geometry" />
        </mxCell>
        <mxCell id="r6h-WWT1z0xAQhpsZW0J-261" value="+ movePlayer(location:Coor): void" style="text;strokeColor=none;fillColor=none;align=left;verticalAlign=middle;spacingLeft=4;spacingRight=4;overflow=hidden;rotatable=0;points=[[0,0.5],[1,0.5]];portConstraint=eastwest;fontSize=20;spacing=0;spacingBottom=0;spacingTop=-3;" parent="r6h-WWT1z0xAQhpsZW0J-246" vertex="1">
          <mxGeometry y="294" width="415" height="26" as="geometry" />
        </mxCell>
        <mxCell id="r6h-WWT1z0xAQhpsZW0J-379" style="edgeStyle=elbowEdgeStyle;rounded=0;orthogonalLoop=1;jettySize=auto;elbow=vertical;html=1;startArrow=none;startFill=0;startSize=20;endArrow=diamondThin;endFill=0;endSize=20;strokeWidth=1;fontSize=20;spacing=0;spacingBottom=0;spacingTop=-3;verticalAlign=middle;" parent="1" source="r6h-WWT1z0xAQhpsZW0J-26" target="r6h-WWT1z0xAQhpsZW0J-246" edge="1">
          <mxGeometry relative="1" as="geometry">
            <Array as="points">
              <mxPoint x="1840" y="530" />
              <mxPoint x="1680" y="600" />
              <mxPoint x="1650" y="350" />
              <mxPoint x="1680" y="460" />
              <mxPoint x="1600" y="400" />
            </Array>
          </mxGeometry>
        </mxCell>
        <mxCell id="r6h-WWT1z0xAQhpsZW0J-381" value="0..*" style="edgeLabel;html=1;align=center;verticalAlign=middle;resizable=0;points=[];fontSize=20;" parent="r6h-WWT1z0xAQhpsZW0J-379" vertex="1" connectable="0">
          <mxGeometry x="-0.88" relative="1" as="geometry">
            <mxPoint x="30" y="-5.43" as="offset" />
          </mxGeometry>
        </mxCell>
        <mxCell id="r6h-WWT1z0xAQhpsZW0J-382" value="0..1" style="edgeLabel;html=1;align=center;verticalAlign=middle;resizable=0;points=[];fontSize=20;" parent="r6h-WWT1z0xAQhpsZW0J-379" vertex="1" connectable="0">
          <mxGeometry x="0.8742" y="3" relative="1" as="geometry">
            <mxPoint x="17" as="offset" />
          </mxGeometry>
        </mxCell>
        <mxCell id="r6h-WWT1z0xAQhpsZW0J-26" value="Tile" style="swimlane;fontStyle=3;align=center;verticalAlign=middle;childLayout=stackLayout;horizontal=1;startSize=26;horizontalStack=0;resizeParent=1;resizeParentMax=0;resizeLast=0;collapsible=1;marginBottom=0;fontSize=20;spacing=0;spacingBottom=0;spacingTop=-1;perimeterSpacing=0;rounded=0;shadow=0;sketch=0;resizeWidth=1;resizeHeight=1;labelBorderColor=none;" parent="1" vertex="1">
          <mxGeometry x="1500" y="320" width="222" height="54" as="geometry" />
        </mxCell>
        <mxCell id="r6h-WWT1z0xAQhpsZW0J-29" value="" style="line;strokeWidth=1;fillColor=none;align=left;verticalAlign=middle;spacingTop=-3;spacingLeft=3;spacingRight=3;rotatable=0;labelPosition=right;points=[];portConstraint=eastwest;fontSize=20;spacing=0;spacingBottom=0;" parent="r6h-WWT1z0xAQhpsZW0J-26" vertex="1">
          <mxGeometry y="26" width="222" height="8" as="geometry" />
        </mxCell>
        <mxCell id="r6h-WWT1z0xAQhpsZW0J-378" value="+ getTileType(): String" style="text;strokeColor=none;fillColor=none;align=left;verticalAlign=middle;spacingLeft=4;spacingRight=4;overflow=hidden;rotatable=0;points=[[0,0.5],[1,0.5]];portConstraint=eastwest;fontStyle=2;spacingBottom=0;labelBorderColor=none;spacing=0;spacingTop=-3;fontSize=20;" parent="r6h-WWT1z0xAQhpsZW0J-26" vertex="1">
          <mxGeometry y="34" width="222" height="20" as="geometry" />
        </mxCell>
        <mxCell id="r6h-WWT1z0xAQhpsZW0J-342" style="edgeStyle=elbowEdgeStyle;orthogonalLoop=1;jettySize=auto;html=1;startArrow=diamondThin;startFill=0;startSize=20;endArrow=none;endFill=0;endSize=20;elbow=vertical;fontSize=20;spacing=0;spacingBottom=0;spacingTop=-3;verticalAlign=middle;rounded=0;" parent="1" source="r6h-WWT1z0xAQhpsZW0J-160" target="r6h-WWT1z0xAQhpsZW0J-26" edge="1">
          <mxGeometry relative="1" as="geometry">
            <mxPoint x="800" y="1080" as="targetPoint" />
          </mxGeometry>
        </mxCell>
        <mxCell id="r6h-WWT1z0xAQhpsZW0J-355" value="0..*" style="edgeLabel;html=1;align=center;verticalAlign=middle;resizable=0;points=[];fontSize=20;spacing=0;spacingBottom=0;spacingTop=-3;" parent="r6h-WWT1z0xAQhpsZW0J-342" vertex="1" connectable="0">
          <mxGeometry x="0.9324" relative="1" as="geometry">
            <mxPoint x="-29.41" y="-16.759999999999998" as="offset" />
          </mxGeometry>
        </mxCell>
        <mxCell id="r6h-WWT1z0xAQhpsZW0J-356" value="0..1" style="edgeLabel;html=1;align=center;verticalAlign=middle;resizable=0;points=[];fontSize=20;spacing=0;spacingBottom=0;spacingTop=-3;" parent="r6h-WWT1z0xAQhpsZW0J-342" vertex="1" connectable="0">
          <mxGeometry x="-0.9516" y="3" relative="1" as="geometry">
            <mxPoint x="50" y="-13.76" as="offset" />
          </mxGeometry>
        </mxCell>
      </root>
    </mxGraphModel>
  </diagram>
</mxfile>
